<svg width="40" height="40" viewBox="0 0 40 40" fill="none" xmlns="http://www.w3.org/2000/svg">
<rect width="40" height="40" rx="20" fill="url(#paint0_linear_895_2947)" fill-opacity="0.1"/>
<path fill-rule="evenodd" clip-rule="evenodd" d="M14.2176 12.4624C14.3052 12.3988 14.3958 12.3402 14.4899 12.2863C14.5202 12.3537 14.563 12.4168 14.6183 12.4721C15.6938 13.5475 16.5379 14.3903 17.282 14.9859C18.0354 15.5889 18.7409 15.9847 19.5538 16.1134C20.0504 16.1921 20.5563 16.1921 21.0529 16.1134C21.8431 15.9883 22.5316 15.6108 23.2614 15.0361C23.9819 14.4687 24.7907 13.669 25.8089 12.6516C25.8416 12.6189 25.8699 12.5836 25.8938 12.5462C26.2017 12.786 26.4746 13.0681 26.7042 13.3842C27.5 14.4795 27.5 16.0419 27.5 19.1667V20.8333C27.5 23.9581 27.5 25.5205 26.7042 26.6158C26.4472 26.9695 26.1362 27.2806 25.7824 27.5376C24.6872 28.3333 23.1248 28.3333 20 28.3333C16.8752 28.3333 15.3128 28.3333 14.2176 27.5376C13.8638 27.2806 13.5528 26.9695 13.2958 26.6158C12.5 25.5205 12.5 23.9581 12.5 20.8333V19.1667C12.5 16.0419 12.5 14.4795 13.2958 13.3842C13.5528 13.0305 13.8638 12.7194 14.2176 12.4624ZM16.6667 17.7083C16.3215 17.7083 16.0417 17.9882 16.0417 18.3333C16.0417 18.6785 16.3215 18.9583 16.6667 18.9583H19.1667C19.5118 18.9583 19.7917 18.6785 19.7917 18.3333C19.7917 17.9882 19.5118 17.7083 19.1667 17.7083H16.6667ZM16.6667 21.0417C16.3215 21.0417 16.0417 21.3215 16.0417 21.6667C16.0417 22.0118 16.3215 22.2917 16.6667 22.2917H23.3333C23.6785 22.2917 23.9583 22.0118 23.9583 21.6667C23.9583 21.3215 23.6785 21.0417 23.3333 21.0417H16.6667ZM16.6667 24.375C16.3215 24.375 16.0417 24.6548 16.0417 25C16.0417 25.3452 16.3215 25.625 16.6667 25.625H23.3333C23.6785 25.625 23.9583 25.3452 23.9583 25C23.9583 24.6548 23.6785 24.375 23.3333 24.375H16.6667Z" fill="url(#paint1_linear_895_2947)"/>
<path d="M20 11.6667C22.2499 11.6667 23.6899 11.6667 24.7286 11.9637C23.795 12.8949 23.0967 13.5748 22.4881 14.0541C21.8468 14.5591 21.3552 14.7999 20.8574 14.8788C20.4903 14.9369 20.1164 14.9369 19.7493 14.8788C19.2372 14.7977 18.7318 14.5452 18.0631 14.01C17.4405 13.5117 16.7242 12.8087 15.7638 11.8497C16.7573 11.6667 18.0853 11.6667 20 11.6667Z" fill="url(#paint2_linear_895_2947)"/>
<defs>
<linearGradient id="paint0_linear_895_2947" x1="-0.999999" y1="-15" x2="65.1383" y2="-6.37523" gradientUnits="userSpaceOnUse">
<stop stop-color="#BAFF00"/>
<stop offset="1" stop-color="#149C6B"/>
</linearGradient>
<linearGradient id="paint1_linear_895_2947" x1="12.125" y1="5.41667" x2="37.0059" y2="8.33681" gradientUnits="userSpaceOnUse">
<stop stop-color="#BAFF00"/>
<stop offset="1" stop-color="#149C6B"/>
</linearGradient>
<linearGradient id="paint2_linear_895_2947" x1="12.125" y1="5.41667" x2="37.0059" y2="8.33681" gradientUnits="userSpaceOnUse">
<stop stop-color="#BAFF00"/>
<stop offset="1" stop-color="#149C6B"/>
</linearGradient>
</defs>
</svg>
