<svg width="14" height="14" viewBox="0 0 14 14" fill="none" xmlns="http://www.w3.org/2000/svg">
<path fill-rule="evenodd" clip-rule="evenodd" d="M13.6667 7C13.6667 10.6819 10.6819 13.6667 7 13.6667C3.3181 13.6667 0.333332 10.6819 0.333332 7C0.333332 3.3181 3.3181 0.333332 7 0.333332C10.6819 0.333332 13.6667 3.3181 13.6667 7ZM8.03902 4.10759C7.39104 3.24362 6.03939 3.46296 5.69788 4.4875L5.47434 5.15811C5.38702 5.42009 5.10386 5.56167 4.84189 5.47434C4.57991 5.38702 4.43833 5.10386 4.52566 4.84189L4.74919 4.17127C5.3458 2.38147 7.70705 1.99829 8.83902 3.50759C9.50211 4.3917 9.45585 5.61928 8.72811 6.45098L8.1153 7.15133C7.71864 7.60466 7.5 8.18656 7.5 8.78893V9C7.5 9.27614 7.27614 9.5 7 9.5C6.72386 9.5 6.5 9.27614 6.5 9V8.78893C6.5 7.94434 6.80656 7.12845 7.36273 6.49282L7.97553 5.79248C8.39211 5.31639 8.41859 4.61368 8.03902 4.10759ZM7 11.6667C7.36819 11.6667 7.66667 11.3682 7.66667 11C7.66667 10.6318 7.36819 10.3333 7 10.3333C6.63181 10.3333 6.33333 10.6318 6.33333 11C6.33333 11.3682 6.63181 11.6667 7 11.6667Z" fill="white"/>
</svg>
