<svg width="40" height="40" viewBox="0 0 40 40" fill="none" xmlns="http://www.w3.org/2000/svg">
<rect width="40" height="40" rx="20" fill="url(#paint0_linear_895_2943)" fill-opacity="0.1"/>
<path fill-rule="evenodd" clip-rule="evenodd" d="M16.5297 13.563C17.622 10.2012 22.378 10.2012 23.4703 13.563C23.7914 14.5514 24.7125 15.2206 25.7518 15.2206C29.2865 15.2206 30.7562 19.7438 27.8965 21.8215C27.0558 22.4324 26.7039 23.5152 27.0251 24.5036C28.1174 27.8653 24.2697 30.6608 21.41 28.5832C20.5692 27.9723 19.4307 27.9723 18.5899 28.5831C15.7302 30.6608 11.8826 27.8653 12.9749 24.5036C13.296 23.5152 12.9442 22.4324 12.1034 21.8215C9.24372 19.7438 10.7134 15.2206 14.2482 15.2206C15.2874 15.2206 16.2085 14.5514 16.5297 13.563ZM22.2586 16.3712C22.1478 16.0442 21.793 15.869 21.4661 15.9797C21.1392 16.0905 20.9639 16.4453 21.0746 16.7722C21.4339 17.8328 22.4528 18.5281 23.577 18.5281C23.9222 18.5281 24.202 18.2482 24.202 17.903C24.202 17.5579 23.9222 17.278 23.577 17.278C22.9608 17.278 22.4371 16.8984 22.2586 16.3712Z" fill="url(#paint1_linear_895_2943)"/>
<defs>
<linearGradient id="paint0_linear_895_2943" x1="-0.999999" y1="-15" x2="65.1383" y2="-6.37523" gradientUnits="userSpaceOnUse">
<stop stop-color="#BAFF00"/>
<stop offset="1" stop-color="#149C6B"/>
</linearGradient>
<linearGradient id="paint1_linear_895_2943" x1="10.1219" y1="4.19607" x2="41.1999" y2="8.37323" gradientUnits="userSpaceOnUse">
<stop stop-color="#BAFF00"/>
<stop offset="1" stop-color="#149C6B"/>
</linearGradient>
</defs>
</svg>
