<svg width="40" height="40" viewBox="0 0 40 40" fill="none" xmlns="http://www.w3.org/2000/svg">
<rect width="40" height="40" rx="20" fill="url(#paint0_linear_895_2939)" fill-opacity="0.1"/>
<path d="M14.375 14.7917C14.375 12.6055 16.1472 10.8333 18.3333 10.8333C20.5195 10.8333 22.2917 12.6055 22.2917 14.7917C22.2917 16.9778 20.5195 18.75 18.3333 18.75C16.1472 18.75 14.375 16.9778 14.375 14.7917Z" fill="url(#paint1_linear_895_2939)"/>
<path d="M11.875 23.9583C11.875 21.7722 13.6472 20 15.8333 20H20.8333C22.531 20 23.979 21.0687 24.5414 22.5701L24.284 22.8576C23.7052 23.504 23.3802 23.8613 23.125 24.0789C22.8698 23.8613 22.5448 23.504 21.966 22.8576L21.2417 22.0486C20.6277 21.3628 19.5741 21.3046 18.8883 21.9186C18.2025 22.5326 18.1443 23.5862 18.7583 24.272L19.5472 25.1532C20.0471 25.7118 20.5332 26.255 20.9951 26.6432C21.428 27.0071 21.9767 27.3555 22.6716 27.4648C22.1223 27.7534 21.4969 27.9167 20.8333 27.9167H15.8333C13.6472 27.9167 11.875 26.1445 11.875 23.9583Z" fill="url(#paint2_linear_895_2939)"/>
<path d="M28.799 21.2502C29.0292 20.9931 29.0074 20.5979 28.7502 20.3677C28.4931 20.1374 28.0979 20.1593 27.8677 20.4164L25.06 23.5524C24.4911 24.1879 24.108 24.6136 23.7804 24.8889C23.4684 25.1512 23.2851 25.2083 23.125 25.2083C22.9649 25.2083 22.7816 25.1512 22.4696 24.8889C22.142 24.6136 21.7589 24.1879 21.19 23.5524L20.4656 22.7434C20.2354 22.4862 19.8403 22.4644 19.5831 22.6947C19.3259 22.9249 19.3041 23.32 19.5344 23.5772L20.2896 24.4208C20.8195 25.0127 21.2614 25.5063 21.6653 25.8458C22.0925 26.2048 22.5533 26.4583 23.125 26.4583C23.6967 26.4583 24.1575 26.2048 24.5847 25.8458C24.9885 25.5063 25.4305 25.0127 25.9604 24.4208L28.799 21.2502Z" fill="url(#paint3_linear_895_2939)"/>
<defs>
<linearGradient id="paint0_linear_895_2939" x1="-0.999999" y1="-15" x2="65.1383" y2="-6.37523" gradientUnits="userSpaceOnUse">
<stop stop-color="#BAFF00"/>
<stop offset="1" stop-color="#149C6B"/>
</linearGradient>
<linearGradient id="paint1_linear_895_2939" x1="11.4479" y1="4.42708" x2="39.6945" y2="8.11057" gradientUnits="userSpaceOnUse">
<stop stop-color="#BAFF00"/>
<stop offset="1" stop-color="#149C6B"/>
</linearGradient>
<linearGradient id="paint2_linear_895_2939" x1="11.4479" y1="4.42708" x2="39.6945" y2="8.11057" gradientUnits="userSpaceOnUse">
<stop stop-color="#BAFF00"/>
<stop offset="1" stop-color="#149C6B"/>
</linearGradient>
<linearGradient id="paint3_linear_895_2939" x1="11.4479" y1="4.42708" x2="39.6945" y2="8.11057" gradientUnits="userSpaceOnUse">
<stop stop-color="#BAFF00"/>
<stop offset="1" stop-color="#149C6B"/>
</linearGradient>
</defs>
</svg>
